<svg xmlns="http://www.w3.org/2000/svg" viewBox="0 0 512 512"><defs/><path d="M418 348.92a84 84 0 10-33.05-161.24c-5.55-78.02-70.6-139.6-150.03-139.6-83.07 0-150.41 67.35-150.41 150.42 0 8.44.7 16.7 2.04 24.76A63.5 63.5 0 1073.5 348.91H418z" fill="#aae6ff"/><path d="M384.95 187.68a83.71 83.71 0 0133.05-6.76c14.4 0 27.95 3.63 39.8 10a74 74 0 00-110.74-92.67 149.82 149.82 0 0137.89 89.43z" fill="#e6aa46"/><path d="M470.5 186.97a84.3 84.3 0 005.54-29.97c0-46.32-37.68-84-84-84a83.12 83.12 0 00-43.58 12.2 159.83 159.83 0 00-113.54-47.1c-88.45-.01-160.41 71.95-160.41 160.4 0 4.47.18 8.96.56 13.43l-1.57-.01c-40.53 0-73.5 32.97-73.5 73.5s32.97 73.5 73.5 73.5h148.26a10 10 0 100-20H73.5c-29.5 0-53.5-24-53.5-53.5a53.56 53.56 0 0164.4-52.38 53.59 53.59 0 0142.6 52.38 10 10 0 1020 0 73.67 73.67 0 00-51.48-70.13c-.67-5.58-1.01-11.2-1.01-16.79 0-77.42 62.99-140.41 140.41-140.41 73.34 0 134.86 57.23 140.05 130.3a10 10 0 0013.92 8.48 73.5 73.5 0 0129.11-5.95c40.8 0 74 33.2 74 74s-33.2 74-74 74H313a10 10 0 100 20h105c51.83 0 94-42.17 94-94a93.98 93.98 0 00-41.5-77.95zm-77-12.82a159.49 159.49 0 00-31.57-73.64 63.36 63.36 0 0130.1-7.51c35.3 0 64 28.7 64 64 0 7.09-1.15 13.96-3.4 20.53a93.52 93.52 0 00-34.63-6.61 93.69 93.69 0 00-24.5 3.23z"/><path d="M268.33 338.92a10.03 10.03 0 00-10 10c0 2.63 1.07 5.2 2.93 7.07a10.08 10.08 0 007.07 2.93 10.1 10.1 0 007.08-2.93 10.05 10.05 0 000-14.14 10.07 10.07 0 00-7.08-2.93zM470.73 88.3c2.55 0 5.11-.97 7.07-2.92l30.75-30.76a10 10 0 00-14.14-14.14l-30.76 30.76a10 10 0 007.08 17.07zM392.04 57.55a10 10 0 0010-10V25.92a10 10 0 10-20 0v21.63a10 10 0 0010 10zM502 147h-4.85a10 10 0 100 20H502a10 10 0 100-20zM83.86 370.97a10 10 0 00-14.14 0l-30.58 30.58a10 10 0 1014.14 14.14l30.58-30.58a10 10 0 000-14.14zM213.53 370.97a10 10 0 00-14.14 0l-30.4 30.39a10 10 0 1014.15 14.14l30.4-30.4a10 10 0 000-14.13zM343.2 370.97a10 10 0 00-14.14 0l-30.07 30.06a10 10 0 1014.15 14.14l30.06-30.06a10 10 0 000-14.14zM107.55 433.97L62.5 479a10 10 0 0014.14 14.15l45.05-45.05a10 10 0 00-14.14-14.14zM237.21 433.97L192.17 479a10 10 0 0014.14 14.15l45.04-45.05a10 10 0 00-14.14-14.14zM366.88 433.97L321.83 479a10 10 0 0014.15 14.14l45.04-45.04a10 10 0 00-14.14-14.14zM458.72 370.96L429 400.7a10 10 0 1014.14 14.14l29.73-29.72a10 10 0 10-14.15-14.15zM245.16 93.58a10 10 0 00-9.94-10.07h-.3a10 10 0 100 20H235.16a10 10 0 0010-9.94zM326.15 188.39a10 10 0 1019.95-1.42 111.1 111.1 0 00-66.8-94.27 10 10 0 00-7.97 18.34 91.16 91.16 0 0154.82 77.35z"/></svg>